{"glyphs":{"0":{"ha":1115,"x_min":0,"x_max":0,"o":"m 557 -23 b 1063 483 892 -23 1063 148 b 557 989 1063 818 892 989 b 51 483 222 989 51 818 b 557 -23 51 148 222 -23 z m 404 483 b 557 699 404 626 455 699 b 710 483 659 699 710 626 b 557 267 710 339 659 267 b 404 483 455 267 404 339 z "},"1":{"ha":608,"x_min":0,"x_max":0,"o":"m 201 0 l 544 0 l 544 966 l 201 966 l 42 923 l 42 656 l 201 699 z "},"2":{"ha":985,"x_min":0,"x_max":0,"o":"m 67 925 l 138 655 b 408 699 212 683 323 699 b 575 668 504 699 575 696 b 53 168 575 597 53 591 l 53 0 l 928 0 l 928 267 l 449 267 b 928 668 449 374 928 283 b 436 989 928 919 735 989 b 67 925 307 989 156 964 z "},"3":{"ha":986,"x_min":0,"x_max":0,"o":"m 446 989 b 49 925 277 989 145 967 l 120 655 b 418 699 198 685 297 699 b 560 643 512 699 560 680 b 446 588 560 607 522 588 l 348 588 l 348 378 l 446 378 b 588 322 540 378 588 359 b 418 267 588 285 532 267 b 120 311 297 267 198 281 l 49 41 b 446 -23 145 -1 277 -23 b 932 261 769 -23 932 72 b 759 487 932 368 874 443 b 904 705 855 531 904 604 b 446 989 904 893 750 989 z "},"4":{"ha":1119,"x_min":0,"x_max":0,"o":"m 47 304 l 47 165 l 590 165 l 590 0 l 934 0 l 934 165 l 1076 165 l 1076 432 l 934 432 l 934 682 l 590 682 l 590 432 l 438 432 l 587 966 l 232 966 z "},"5":{"ha":981,"x_min":0,"x_max":0,"o":"m 117 311 l 46 41 b 444 -23 142 -1 275 -23 b 929 318 766 -23 929 101 b 466 616 929 534 773 612 l 471 699 l 844 699 l 844 966 l 142 966 l 115 489 l 115 406 l 444 406 b 586 337 537 406 586 388 b 415 267 586 285 537 267 b 117 311 294 267 195 281 z "},"6":{"ha":1029,"x_min":0,"x_max":0,"o":"m 612 989 b 50 469 291 989 50 804 b 541 -23 50 176 206 -23 b 985 304 864 -23 985 129 b 584 616 985 526 850 616 b 428 592 509 616 463 607 b 627 699 462 660 530 699 b 769 683 675 699 737 690 l 840 962 b 612 989 796 977 685 989 z m 541 267 b 411 374 468 267 428 304 b 541 406 442 393 479 406 b 641 337 597 406 641 385 b 541 267 641 288 597 267 z "},"7":{"ha":922,"x_min":0,"x_max":0,"o":"m 462 699 l 164 0 l 536 0 l 888 824 l 888 966 l 36 966 l 36 699 z "},"8":{"ha":1021,"x_min":0,"x_max":0,"o":"m 81 705 b 216 487 81 604 127 531 b 53 261 107 443 53 368 b 510 -23 53 72 206 -23 b 968 261 814 -23 968 72 b 804 487 968 368 914 443 b 939 705 894 531 939 604 b 510 989 939 893 796 989 b 81 705 225 989 81 893 z m 397 322 b 510 378 397 361 432 378 b 624 322 588 378 624 361 b 510 267 624 284 588 267 b 397 322 432 267 397 284 z m 425 643 b 510 699 425 682 450 699 b 595 643 570 699 595 682 b 510 588 595 605 570 588 b 425 643 450 588 425 605 z "},"9":{"ha":1029,"x_min":0,"x_max":0,"o":"m 488 989 b 44 662 165 989 44 837 b 445 349 44 440 179 349 b 601 374 520 349 566 359 b 402 267 567 305 499 267 b 260 283 354 267 292 276 l 189 4 b 417 -23 233 -11 344 -23 b 979 497 738 -23 979 162 b 488 989 979 790 823 989 z m 388 629 b 488 699 388 678 432 699 b 618 592 561 699 601 662 b 488 560 587 572 550 560 b 388 629 432 560 388 581 z "},"\u0000":{"ha":0,"x_min":0,"x_max":0,"o":""},"\n":{"ha":0,"x_min":0,"x_max":0,"o":""},"\r":{"ha":0,"x_min":0,"x_max":0,"o":""}," ":{"ha":557,"x_min":0,"x_max":0,"o":""},"!":{"ha":442,"x_min":0,"x_max":0,"o":"m 148 266 l 293 266 l 392 966 l 49 966 z m 107 91 b 220 -23 107 28 158 -23 b 334 91 283 -23 334 28 b 220 205 334 153 283 205 b 107 91 158 205 107 153 z "},"\"":{"ha":546,"x_min":0,"x_max":0,"o":"m 97 861 b 55 794 97 844 89 831 l 67 744 b 259 999 158 808 259 896 b 146 1112 259 1061 208 1112 b 32 999 83 1112 32 1061 b 97 861 32 925 97 902 z m 401 1112 b 288 999 339 1112 288 1061 b 353 861 288 925 353 902 b 310 794 353 844 344 831 l 323 744 b 515 999 414 808 515 896 b 401 1112 515 1061 464 1112 z "},"#":{"ha":1149,"x_min":0,"x_max":0,"o":"m 179 0 l 523 0 l 523 165 l 625 165 l 625 0 l 969 0 l 969 165 l 1091 165 l 1091 432 l 969 432 l 969 534 l 1091 534 l 1091 801 l 969 801 l 969 966 l 625 966 l 625 801 l 523 801 l 523 966 l 179 966 l 179 801 l 57 801 l 57 534 l 179 534 l 179 432 l 57 432 l 57 165 l 179 165 z m 523 432 l 523 534 l 625 534 l 625 432 z "},"$":{"ha":1032,"x_min":0,"x_max":0,"o":"m 881 655 l 952 925 b 620 989 870 962 749 984 l 620 1122 l 409 1122 l 409 979 b 77 682 193 950 77 862 b 628 312 77 312 628 395 b 404 267 628 284 543 267 b 120 311 262 267 167 297 l 49 41 b 404 -23 93 20 246 -23 l 409 -23 l 409 -156 l 620 -156 l 620 -11 b 980 298 853 16 980 101 b 429 668 980 668 429 597 b 611 699 429 696 514 699 b 881 655 696 699 807 683 z "},"%":{"ha":1382,"x_min":0,"x_max":0,"o":"m 40 632 b 303 396 40 483 135 396 b 566 632 471 396 566 483 b 303 868 566 781 471 868 b 40 632 135 868 40 781 z m 248 632 b 303 690 248 669 268 690 b 358 632 339 690 358 669 b 303 575 358 597 339 575 b 248 632 268 575 248 597 z m 749 966 l 422 0 l 633 0 l 959 966 z m 816 334 b 1079 98 816 185 911 98 b 1341 334 1246 98 1341 185 b 1079 570 1341 483 1246 570 b 816 334 911 570 816 483 z m 1023 334 b 1079 391 1023 369 1043 391 b 1134 334 1114 391 1134 369 b 1079 276 1134 297 1114 276 b 1023 334 1043 276 1023 297 z "},"&":{"ha":1011,"x_min":0,"x_max":0,"o":"m 568 -23 b 955 27 683 -23 868 0 l 955 643 l 611 643 l 611 588 l 509 588 b 438 642 462 588 438 605 b 523 699 438 682 462 699 b 622 683 571 699 593 692 l 693 962 b 495 989 649 977 567 989 b 94 705 233 989 94 886 b 208 496 94 609 132 540 b 51 273 104 456 51 385 b 568 -23 51 27 293 -23 z m 395 334 b 466 378 395 361 419 378 l 611 378 l 611 268 b 564 267 594 267 578 267 b 395 334 452 267 395 283 z "},"'":{"ha":290,"x_min":0,"x_max":0,"o":"m 97 861 b 55 794 97 844 89 831 l 67 744 b 259 999 158 808 259 896 b 146 1112 259 1061 208 1112 b 32 999 83 1112 32 1061 b 97 861 32 925 97 902 z "},"(":{"ha":563,"x_min":0,"x_max":0,"o":"m 546 1017 l 335 1017 b 51 483 175 882 51 723 b 335 -51 51 243 175 84 l 546 -51 b 404 483 435 145 404 312 b 546 1017 404 653 435 821 z "},")":{"ha":563,"x_min":0,"x_max":0,"o":"m 227 1017 l 17 1017 b 159 483 127 821 159 653 b 17 -51 159 312 127 145 l 227 -51 b 511 483 387 84 511 243 b 227 1017 511 723 387 882 z "},"*":{"ha":507,"x_min":0,"x_max":0,"o":"m 192 1135 l 192 1055 l 107 1105 l 36 1004 l 133 947 l 36 891 l 107 790 l 192 839 l 192 760 l 315 760 l 315 839 l 400 790 l 471 891 l 374 947 l 471 1004 l 400 1105 l 315 1055 l 315 1135 z "},"+":{"ha":635,"x_min":0,"x_max":0,"o":"m 46 588 l 46 378 l 212 378 l 212 212 l 422 212 l 422 378 l 588 378 l 588 588 l 422 588 l 422 754 l 212 754 l 212 588 z "},",":{"ha":308,"x_min":0,"x_max":0,"o":"m 106 -47 b 63 -114 106 -64 97 -77 l 76 -163 b 268 91 167 -99 268 -11 b 154 205 268 153 216 205 b 40 91 91 205 40 153 b 106 -47 40 17 106 -6 z "},"-":{"ha":513,"x_min":0,"x_max":0,"o":"m 42 588 l 42 378 l 471 378 l 471 588 z "},".":{"ha":308,"x_min":0,"x_max":0,"o":"m 154 -23 b 268 91 216 -23 268 28 b 154 205 268 153 216 205 b 40 91 91 205 40 153 b 154 -23 40 28 91 -23 z "},"/":{"ha":494,"x_min":0,"x_max":0,"o":"m 249 966 l -21 -256 l 189 -256 l 459 966 z "},":":{"ha":368,"x_min":0,"x_max":0,"o":"m 50 665 b 184 531 50 588 107 531 b 317 665 260 531 317 588 b 184 798 317 741 260 798 b 50 665 107 798 50 741 z m 184 168 b 317 301 260 168 317 224 b 184 435 317 378 260 435 b 50 301 107 435 50 378 b 184 168 50 224 107 168 z "},";":{"ha":371,"x_min":0,"x_max":0,"o":"m 185 531 b 318 665 262 531 318 588 b 185 798 318 741 262 798 b 51 665 108 798 51 741 b 185 531 51 588 108 531 z m 51 301 b 145 149 51 213 145 205 b 88 68 145 132 122 91 l 101 18 b 318 301 192 68 318 199 b 185 435 318 378 262 435 b 51 301 108 435 51 378 z "},"<":{"ha":514,"x_min":0,"x_max":0,"o":"m 476 812 l 238 812 l 39 483 l 238 153 l 476 153 l 278 483 z "},"=":{"ha":643,"x_min":0,"x_max":0,"o":"m 50 716 l 50 506 l 593 506 l 593 716 z m 50 250 l 593 250 l 593 460 l 50 460 z "},">":{"ha":514,"x_min":0,"x_max":0,"o":"m 38 812 l 236 483 l 38 153 l 276 153 l 475 483 l 276 812 z "},"?":{"ha":925,"x_min":0,"x_max":0,"o":"m 390 989 b 21 925 261 989 110 964 l 92 655 b 362 699 166 683 276 699 b 529 668 458 699 529 696 b 274 266 529 597 274 570 l 419 266 b 882 668 419 416 882 310 b 390 989 882 919 688 989 z m 232 91 b 346 -23 232 28 284 -23 b 460 91 409 -23 460 28 b 346 205 460 153 409 205 b 232 91 284 205 232 153 z "},"@":{"ha":1256,"x_min":0,"x_max":0,"o":"m 1061 445 b 975 267 1061 358 1039 267 b 891 399 924 267 891 320 l 891 682 l 686 682 l 686 609 b 527 699 651 666 594 699 b 300 412 391 699 300 587 b 527 125 300 237 391 125 b 713 273 614 125 685 180 b 952 125 756 183 843 125 b 1206 445 1100 125 1206 247 b 628 989 1206 747 962 989 b 50 416 294 989 50 747 b 671 -156 50 85 294 -156 b 943 -84 774 -156 864 -132 l 885 30 b 671 -14 821 4 762 -14 b 195 416 378 -14 195 168 b 628 847 195 665 378 847 b 1061 445 878 847 1061 665 z m 601 284 b 510 412 546 284 510 335 b 601 540 510 489 546 540 b 686 452 654 540 686 506 l 686 399 b 688 372 686 391 686 381 b 601 284 686 318 654 284 z "},"A":{"ha":1033,"x_min":0,"x_max":0,"o":"m 63 0 l 406 0 l 406 193 l 645 193 l 645 0 l 989 0 l 989 483 b 406 989 989 804 793 989 b 63 939 305 989 121 964 z m 645 460 l 406 460 l 406 699 b 645 483 584 699 645 626 z "},"B":{"ha":1051,"x_min":0,"x_max":0,"o":"m 63 966 l 63 0 l 608 0 b 1023 273 883 0 1023 91 b 872 493 1023 382 972 453 b 980 693 943 535 980 601 b 565 966 980 875 841 966 z m 406 588 l 406 699 l 565 699 b 636 643 612 699 636 680 b 565 588 636 607 612 588 z m 406 267 l 406 378 l 608 378 b 679 322 655 378 679 359 b 608 267 679 285 655 267 z "},"C":{"ha":940,"x_min":0,"x_max":0,"o":"m 845 660 l 916 939 b 617 989 872 966 732 989 b 26 483 231 989 26 804 b 617 -23 26 162 231 -23 b 916 27 732 -23 872 0 l 845 305 b 646 267 813 288 731 267 b 379 483 455 267 379 347 b 646 699 379 619 455 699 b 845 660 731 699 813 678 z "},"D":{"ha":1036,"x_min":0,"x_max":0,"o":"m 63 0 l 446 0 b 1008 483 804 0 1008 162 b 446 966 1008 804 804 966 l 62 966 z m 406 267 l 406 699 l 446 699 b 656 483 580 699 656 619 b 446 267 656 347 580 267 z "},"E":{"ha":935,"x_min":0,"x_max":0,"o":"m 63 0 l 892 0 l 892 267 l 406 267 l 406 349 l 801 349 l 801 616 l 406 616 l 406 699 l 892 699 l 892 966 l 63 966 z "},"F":{"ha":908,"x_min":0,"x_max":0,"o":"m 63 0 l 406 0 l 406 349 l 801 349 l 801 616 l 406 616 l 406 699 l 892 699 l 892 966 l 63 966 z "},"G":{"ha":989,"x_min":0,"x_max":0,"o":"m 845 660 l 916 939 b 617 989 872 966 732 989 b 26 483 231 989 26 804 b 614 -23 26 162 228 -23 b 944 27 729 -23 857 0 l 944 531 l 600 531 l 600 267 b 379 483 468 267 379 339 b 646 699 379 626 468 699 b 845 660 731 699 813 678 z "},"H":{"ha":1086,"x_min":0,"x_max":0,"o":"m 63 0 l 406 0 l 406 349 l 679 349 l 679 0 l 1023 0 l 1023 966 l 679 966 l 679 616 l 406 616 l 406 966 l 63 966 z "},"I":{"ha":469,"x_min":0,"x_max":0,"o":"m 63 0 l 406 0 l 406 966 l 63 966 z "},"J":{"ha":815,"x_min":0,"x_max":0,"o":"m 283 -23 b 768 455 587 -23 768 151 l 768 966 l 422 966 l 422 455 b 240 267 422 335 355 267 b 70 297 155 267 107 281 l -1 27 b 283 -23 43 7 168 -23 z "},"K":{"ha":1075,"x_min":0,"x_max":0,"o":"m 63 0 l 406 0 l 406 368 l 679 0 l 1079 0 l 707 483 l 1079 966 l 679 966 l 406 598 l 406 966 l 63 966 z "},"L":{"ha":899,"x_min":0,"x_max":0,"o":"m 63 966 l 63 0 l 892 0 l 892 267 l 406 267 l 406 966 z "},"M":{"ha":1622,"x_min":0,"x_max":0,"o":"m 406 699 b 645 483 584 699 645 626 l 645 0 l 989 0 l 989 483 b 1108 699 989 626 1000 699 b 1227 483 1216 699 1227 626 l 1227 0 l 1571 0 l 1571 483 b 1143 989 1571 834 1467 989 b 817 878 989 989 883 953 b 406 989 720 950 582 989 b 62 939 305 989 121 964 l 62 0 l 406 0 l 406 699 z "},"N":{"ha":1033,"x_min":0,"x_max":0,"o":"m 645 483 l 645 0 l 989 0 l 989 483 b 406 989 989 804 793 989 b 62 939 305 989 121 964 l 62 0 l 406 0 l 406 699 b 645 483 584 699 645 626 z "},"O":{"ha":1178,"x_min":0,"x_max":0,"o":"m 589 -23 b 1151 483 947 -23 1151 162 b 589 989 1151 804 947 989 b 26 483 231 989 26 804 b 589 -23 26 162 231 -23 z m 379 483 b 589 699 379 619 455 699 b 799 483 722 699 799 619 b 589 267 799 347 722 267 b 379 483 455 267 379 347 z "},"P":{"ha":1035,"x_min":0,"x_max":0,"o":"m 63 966 l 63 0 l 406 0 l 406 278 l 594 278 b 1017 622 875 278 1017 393 b 594 966 1017 851 875 966 z m 406 545 l 406 699 l 594 699 b 665 622 641 699 665 673 b 594 545 665 571 641 545 z "},"Q":{"ha":1179,"x_min":0,"x_max":0,"o":"m 589 -23 b 666 -20 614 -23 640 -21 l 866 -222 l 1059 -28 l 958 74 b 1151 483 1083 159 1151 298 b 589 989 1151 804 947 989 b 26 483 231 989 26 804 b 589 -23 26 162 231 -23 z m 379 483 b 589 699 379 619 455 699 b 799 483 722 699 799 619 b 589 267 799 347 722 267 b 379 483 455 267 379 347 z "},"R":{"ha":1063,"x_min":0,"x_max":0,"o":"m 63 0 l 406 0 l 406 278 l 422 278 l 645 0 l 1045 0 l 795 305 b 1017 622 943 351 1017 457 b 594 966 1017 851 875 966 l 63 966 z m 406 545 l 406 699 l 594 699 b 665 622 641 699 665 673 b 594 545 665 571 641 545 z "},"S":{"ha":985,"x_min":0,"x_max":0,"o":"m 587 699 b 857 655 673 699 783 683 l 928 925 b 559 989 839 964 703 989 b 53 682 232 989 53 905 b 605 312 53 312 605 395 b 380 267 605 284 519 267 b 96 311 238 267 143 297 l 25 41 b 380 -23 69 20 222 -23 b 957 298 749 -23 957 47 b 406 668 957 668 406 597 b 587 699 406 696 491 699 z "},"T":{"ha":958,"x_min":0,"x_max":0,"o":"m 307 0 l 650 0 l 650 699 l 952 699 l 952 966 l 6 966 l 6 699 l 307 699 z "},"U":{"ha":1021,"x_min":0,"x_max":0,"o":"m 973 440 l 973 966 l 630 966 l 630 440 b 510 267 630 330 590 267 b 391 440 431 267 391 330 l 391 966 l 47 966 l 47 440 b 510 -23 47 146 206 -23 b 973 440 814 -23 973 146 z "},"V":{"ha":1069,"x_min":0,"x_max":0,"o":"m -4 966 l 308 0 l 760 0 l 1072 966 l 715 966 l 534 352 l 354 966 z "},"W":{"ha":1622,"x_min":0,"x_max":0,"o":"m 1215 267 b 976 483 1037 267 976 339 l 976 966 l 632 966 l 632 483 b 513 267 632 339 621 267 b 394 483 405 267 394 339 l 394 966 l 50 966 l 50 483 b 478 -23 50 132 154 -23 b 804 88 632 -23 737 13 b 1215 -23 901 16 1039 -23 b 1558 27 1316 -23 1500 1 l 1558 966 l 1215 966 l 1215 267 z "},"X":{"ha":1082,"x_min":0,"x_max":0,"o":"m 34 966 l 333 526 l -8 0 l 392 0 l 537 223 l 688 0 l 1088 0 l 754 493 l 1060 966 l 659 966 l 550 795 l 435 966 z "},"Y":{"ha":1113,"x_min":0,"x_max":0,"o":"m 384 342 l 384 0 l 728 0 l 728 342 l 1127 966 l 726 966 l 556 680 l 385 966 l -15 966 l 384 342 z "},"Ÿ":{"ha":1113,"x_min":0,"x_max":0,"o":"m 384 342 l 384 0 l 728 0 l 728 342 l 1127 966 l 726 966 l 556 680 l 385 966 l -15 966 l 384 342 z "},"Z":{"ha":943,"x_min":0,"x_max":0,"o":"m 31 142 l 31 0 l 911 0 l 911 267 l 526 267 l 911 824 l 911 966 l 31 966 l 31 699 l 415 699 z "},"[":{"ha":540,"x_min":0,"x_max":0,"o":"m 63 1099 l 63 -105 l 490 -105 l 490 162 l 393 162 l 393 832 l 490 832 l 490 1099 z "},"\\":{"ha":494,"x_min":0,"x_max":0,"o":"m 245 966 l 35 966 l 305 -256 l 515 -256 z "},"]":{"ha":540,"x_min":0,"x_max":0,"o":"m 478 1099 l 50 1099 l 50 832 l 147 832 l 147 162 l 50 162 l 50 -105 l 478 -105 z "},"^":{"ha":517,"x_min":0,"x_max":0,"o":"m 175 993 l 33 788 l 184 788 l 258 895 l 332 788 l 482 788 l 340 993 z "},"_":{"ha":554,"x_min":0,"x_max":0,"o":"m 63 -40 l 63 -250 l 491 -250 l 491 -40 z "},"`":{"ha":271,"x_min":0,"x_max":0,"o":"m 233 807 l 182 1091 l -28 1091 l 108 807 z "},"a":{"ha":1033,"x_min":0,"x_max":0,"o":"m 63 0 l 406 0 l 406 193 l 645 193 l 645 0 l 989 0 l 989 483 b 406 989 989 804 793 989 b 63 939 305 989 121 964 z m 645 460 l 406 460 l 406 699 b 645 483 584 699 645 626 z "},"b":{"ha":1051,"x_min":0,"x_max":0,"o":"m 63 966 l 63 0 l 608 0 b 1023 273 883 0 1023 91 b 872 493 1023 382 972 453 b 980 693 943 535 980 601 b 565 966 980 875 841 966 z m 406 588 l 406 699 l 565 699 b 636 643 612 699 636 680 b 565 588 636 607 612 588 z m 406 267 l 406 378 l 608 378 b 679 322 655 378 679 359 b 608 267 679 285 655 267 z "},"c":{"ha":940,"x_min":0,"x_max":0,"o":"m 845 660 l 916 939 b 617 989 872 966 732 989 b 26 483 231 989 26 804 b 617 -23 26 162 231 -23 b 916 27 732 -23 872 0 l 845 305 b 646 267 813 288 731 267 b 379 483 455 267 379 347 b 646 699 379 619 455 699 b 845 660 731 699 813 678 z "},"d":{"ha":1036,"x_min":0,"x_max":0,"o":"m 63 0 l 446 0 b 1008 483 804 0 1008 162 b 446 966 1008 804 804 966 l 62 966 z m 406 267 l 406 699 l 446 699 b 656 483 580 699 656 619 b 446 267 656 347 580 267 z "},"e":{"ha":935,"x_min":0,"x_max":0,"o":"m 63 0 l 892 0 l 892 267 l 406 267 l 406 349 l 801 349 l 801 616 l 406 616 l 406 699 l 892 699 l 892 966 l 63 966 z "},"f":{"ha":908,"x_min":0,"x_max":0,"o":"m 63 0 l 406 0 l 406 349 l 801 349 l 801 616 l 406 616 l 406 699 l 892 699 l 892 966 l 63 966 z "},"g":{"ha":989,"x_min":0,"x_max":0,"o":"m 845 660 l 916 939 b 617 989 872 966 732 989 b 26 483 231 989 26 804 b 614 -23 26 162 228 -23 b 944 27 729 -23 857 0 l 944 531 l 600 531 l 600 267 b 379 483 468 267 379 339 b 646 699 379 626 468 699 b 845 660 731 699 813 678 z "},"h":{"ha":1086,"x_min":0,"x_max":0,"o":"m 63 0 l 406 0 l 406 349 l 679 349 l 679 0 l 1023 0 l 1023 966 l 679 966 l 679 616 l 406 616 l 406 966 l 63 966 z "},"i":{"ha":469,"x_min":0,"x_max":0,"o":"m 63 0 l 406 0 l 406 966 l 63 966 z "},"j":{"ha":815,"x_min":0,"x_max":0,"o":"m 283 -23 b 768 455 587 -23 768 151 l 768 966 l 422 966 l 422 455 b 240 267 422 335 355 267 b 70 297 155 267 107 281 l -1 27 b 283 -23 43 7 168 -23 z "},"k":{"ha":1075,"x_min":0,"x_max":0,"o":"m 63 0 l 406 0 l 406 368 l 679 0 l 1079 0 l 707 483 l 1079 966 l 679 966 l 406 598 l 406 966 l 63 966 z "},"l":{"ha":899,"x_min":0,"x_max":0,"o":"m 63 966 l 63 0 l 892 0 l 892 267 l 406 267 l 406 966 z "},"m":{"ha":1622,"x_min":0,"x_max":0,"o":"m 406 699 b 645 483 584 699 645 626 l 645 0 l 989 0 l 989 483 b 1108 699 989 626 1000 699 b 1227 483 1216 699 1227 626 l 1227 0 l 1571 0 l 1571 483 b 1143 989 1571 834 1467 989 b 817 878 989 989 883 953 b 406 989 720 950 582 989 b 62 939 305 989 121 964 l 62 0 l 406 0 l 406 699 z "},"n":{"ha":1033,"x_min":0,"x_max":0,"o":"m 645 483 l 645 0 l 989 0 l 989 483 b 406 989 989 804 793 989 b 62 939 305 989 121 964 l 62 0 l 406 0 l 406 699 b 645 483 584 699 645 626 z "},"o":{"ha":1178,"x_min":0,"x_max":0,"o":"m 589 -23 b 1151 483 947 -23 1151 162 b 589 989 1151 804 947 989 b 26 483 231 989 26 804 b 589 -23 26 162 231 -23 z m 379 483 b 589 699 379 619 455 699 b 799 483 722 699 799 619 b 589 267 799 347 722 267 b 379 483 455 267 379 347 z "},"p":{"ha":1035,"x_min":0,"x_max":0,"o":"m 63 966 l 63 0 l 406 0 l 406 278 l 594 278 b 1017 622 875 278 1017 393 b 594 966 1017 851 875 966 z m 406 545 l 406 699 l 594 699 b 665 622 641 699 665 673 b 594 545 665 571 641 545 z "},"q":{"ha":1179,"x_min":0,"x_max":0,"o":"m 589 -23 b 666 -20 614 -23 640 -21 l 866 -222 l 1059 -28 l 958 74 b 1151 483 1083 159 1151 298 b 589 989 1151 804 947 989 b 26 483 231 989 26 804 b 589 -23 26 162 231 -23 z m 379 483 b 589 699 379 619 455 699 b 799 483 722 699 799 619 b 589 267 799 347 722 267 b 379 483 455 267 379 347 z "},"r":{"ha":1063,"x_min":0,"x_max":0,"o":"m 63 0 l 406 0 l 406 278 l 422 278 l 645 0 l 1045 0 l 795 305 b 1017 622 943 351 1017 457 b 594 966 1017 851 875 966 l 63 966 z m 406 545 l 406 699 l 594 699 b 665 622 641 699 665 673 b 594 545 665 571 641 545 z "},"s":{"ha":985,"x_min":0,"x_max":0,"o":"m 587 699 b 857 655 673 699 783 683 l 928 925 b 559 989 839 964 703 989 b 53 682 232 989 53 905 b 605 312 53 312 605 395 b 380 267 605 284 519 267 b 96 311 238 267 143 297 l 25 41 b 380 -23 69 20 222 -23 b 957 298 749 -23 957 47 b 406 668 957 668 406 597 b 587 699 406 696 491 699 z "},"t":{"ha":958,"x_min":0,"x_max":0,"o":"m 307 0 l 650 0 l 650 699 l 952 699 l 952 966 l 6 966 l 6 699 l 307 699 z "},"u":{"ha":1021,"x_min":0,"x_max":0,"o":"m 510 -23 b 973 440 814 -23 973 146 l 973 966 l 630 966 l 630 440 b 510 267 630 330 590 267 b 391 440 431 267 391 330 l 391 966 l 47 966 l 47 440 b 510 -23 47 146 206 -23 z "},"v":{"ha":1069,"x_min":0,"x_max":0,"o":"m -4 966 l 308 0 l 760 0 l 1072 966 l 715 966 l 534 352 l 354 966 z "},"w":{"ha":1622,"x_min":0,"x_max":0,"o":"m 1215 267 b 976 483 1037 267 976 339 l 976 966 l 632 966 l 632 483 b 513 267 632 339 621 267 b 394 483 405 267 394 339 l 394 966 l 50 966 l 50 483 b 478 -23 50 132 154 -23 b 804 88 632 -23 737 13 b 1215 -23 901 16 1039 -23 b 1558 27 1316 -23 1500 1 l 1558 966 l 1215 966 l 1215 267 z "},"x":{"ha":1082,"x_min":0,"x_max":0,"o":"m 34 966 l 333 526 l -8 0 l 392 0 l 537 223 l 688 0 l 1088 0 l 754 493 l 1060 966 l 659 966 l 550 795 l 435 966 z "},"y":{"ha":1113,"x_min":0,"x_max":0,"o":"m 384 342 l 384 0 l 728 0 l 728 342 l 1127 966 l 726 966 l 556 680 l 385 966 l -15 966 l 384 342 z "},"z":{"ha":943,"x_min":0,"x_max":0,"o":"m 31 142 l 31 0 l 911 0 l 911 267 l 526 267 l 911 824 l 911 966 l 31 966 l 31 699 l 415 699 z "},"{":{"ha":697,"x_min":0,"x_max":0,"o":"m 221 824 b 42 631 221 676 191 631 l 42 364 b 221 170 191 364 221 318 b 648 -105 221 -68 387 -105 l 648 162 b 552 284 589 162 552 172 b 306 497 552 428 441 470 b 552 710 441 524 552 567 b 648 832 552 822 589 832 l 648 1099 b 221 824 387 1099 221 1062 z "},"|":{"ha":336,"x_min":0,"x_max":0,"o":"m 63 966 l 63 -256 l 273 -256 l 273 966 z "},"}":{"ha":697,"x_min":0,"x_max":0,"o":"m 476 170 b 655 364 476 318 506 364 l 655 631 b 476 824 506 631 476 676 b 49 1099 476 1062 310 1099 l 49 832 b 145 710 108 832 145 822 b 391 497 145 567 256 524 b 145 284 256 470 145 428 b 49 162 145 172 108 162 l 49 -105 b 476 170 310 -105 476 -68 z "}," ":{"ha":557,"x_min":0,"x_max":0,"o":""},"¢":{"ha":989,"x_min":0,"x_max":0,"o":"m 868 660 l 939 939 b 708 986 904 960 806 980 l 708 1122 l 497 1122 l 497 979 b 50 483 203 937 50 761 b 497 -13 50 205 203 28 l 497 -156 l 708 -156 l 708 -20 b 939 27 806 -14 904 6 l 868 305 b 669 267 837 288 755 267 b 402 483 479 267 402 347 b 669 699 402 619 479 699 b 868 660 755 699 837 678 z "},"¥":{"ha":1281,"x_min":0,"x_max":0,"o":"m 469 149 l 469 0 l 812 0 l 812 149 l 1034 149 l 1034 271 l 812 271 l 812 317 l 1035 317 l 1035 439 l 875 439 l 1211 966 l 811 966 l 640 680 l 470 966 l 69 966 l 406 439 l 248 439 l 248 317 l 469 317 l 469 271 l 247 271 l 247 149 z "},"«":{"ha":856,"x_min":0,"x_max":0,"o":"m 476 812 l 238 812 l 39 483 l 238 153 l 476 153 l 278 483 z m 380 483 l 579 153 l 817 153 l 618 483 l 817 812 l 579 812 z "},"­":{"ha":0,"x_min":0,"x_max":0,"o":""},"»":{"ha":856,"x_min":0,"x_max":0,"o":"m 38 153 l 276 153 l 475 483 l 276 812 l 38 812 l 236 483 z m 378 812 l 577 483 l 378 153 l 617 153 l 816 483 l 617 812 z "},"À":{"ha":1033,"x_min":0,"x_max":0,"o":"m 63 0 l 406 0 l 406 193 l 645 193 l 645 0 l 989 0 l 989 483 b 406 989 989 804 793 989 b 63 939 305 989 121 964 z m 328 1344 l 455 1102 l 580 1102 l 538 1344 z m 645 460 l 406 460 l 406 699 b 645 483 584 699 645 626 z "},"Á":{"ha":1033,"x_min":0,"x_max":0,"o":"m 63 0 l 406 0 l 406 193 l 645 193 l 645 0 l 989 0 l 989 483 b 406 989 989 804 793 989 b 63 939 305 989 121 964 z m 645 460 l 406 460 l 406 699 b 645 483 584 699 645 626 z m 443 1102 l 568 1102 l 695 1344 l 484 1344 z "},"Â":{"ha":1033,"x_min":0,"x_max":0,"o":"m 63 0 l 406 0 l 406 193 l 645 193 l 645 0 l 989 0 l 989 483 b 406 989 989 804 793 989 b 63 939 305 989 121 964 z m 366 1329 l 240 1102 l 436 1102 l 511 1236 l 587 1102 l 783 1102 l 656 1329 z m 645 460 l 406 460 l 406 699 b 645 483 584 699 645 626 z "},"Ã":{"ha":1033,"x_min":0,"x_max":0,"o":"m 63 0 l 406 0 l 406 193 l 645 193 l 645 0 l 989 0 l 989 483 b 406 989 989 804 793 989 b 63 939 305 989 121 964 z m 281 1172 l 342 1116 b 413 1166 357 1145 386 1166 b 584 1102 472 1166 514 1102 b 741 1246 660 1102 707 1163 l 679 1314 b 609 1249 662 1276 646 1249 b 428 1310 547 1249 503 1310 b 281 1172 358 1310 317 1251 z m 645 460 l 406 460 l 406 699 b 645 483 584 699 645 626 z "},"Ä":{"ha":1033,"x_min":0,"x_max":0,"o":"m 63 0 l 406 0 l 406 193 l 645 193 l 645 0 l 989 0 l 989 483 b 406 989 989 804 793 989 b 63 939 305 989 121 964 z m 256 1216 b 369 1102 256 1153 307 1102 b 483 1216 432 1102 483 1153 b 369 1329 483 1278 432 1329 b 256 1216 307 1329 256 1278 z m 645 460 l 406 460 l 406 699 b 645 483 584 699 645 626 z m 540 1216 b 653 1102 540 1153 591 1102 b 767 1216 716 1102 767 1153 b 653 1329 767 1278 716 1329 b 540 1216 591 1329 540 1278 z "},"Å":{"ha":1033,"x_min":0,"x_max":0,"o":"m 63 0 l 406 0 l 406 193 l 645 193 l 645 0 l 989 0 l 989 483 b 406 989 989 804 793 989 b 63 939 305 989 121 964 z m 341 1264 b 511 1102 341 1170 413 1102 b 682 1264 609 1102 682 1170 b 511 1426 682 1358 609 1426 b 341 1264 413 1426 341 1358 z m 645 460 l 406 460 l 406 699 b 645 483 584 699 645 626 z m 463 1264 b 511 1312 463 1293 483 1312 b 560 1264 540 1312 560 1293 b 511 1216 560 1236 540 1216 b 463 1264 483 1216 463 1236 z "},"Æ":{"ha":1499,"x_min":0,"x_max":0,"o":"m 44 483 l 44 0 l 388 0 l 388 193 l 627 193 l 627 0 l 1456 0 l 1456 267 l 971 267 l 971 349 l 1365 349 l 1365 616 l 971 616 l 971 699 l 1456 699 l 1456 966 l 871 966 b 627 989 828 966 728 989 b 44 483 240 989 44 804 z m 388 483 b 627 699 388 626 449 699 l 627 460 l 388 460 z "},"Ç":{"ha":940,"x_min":0,"x_max":0,"o":"m 646 699 b 845 660 731 699 813 678 l 916 939 b 617 989 872 966 732 989 b 26 483 231 989 26 804 b 498 -16 26 197 188 18 l 448 -95 l 504 -149 b 582 -197 551 -149 582 -169 b 528 -239 582 -223 556 -239 b 460 -217 502 -239 484 -233 l 428 -298 b 552 -322 471 -315 502 -322 b 741 -189 674 -322 741 -270 b 593 -55 741 -115 684 -62 l 613 -23 l 617 -23 b 916 27 732 -23 872 0 l 845 305 b 646 267 813 288 731 267 b 379 483 455 267 379 347 b 646 699 379 619 455 699 z "},"È":{"ha":935,"x_min":0,"x_max":0,"o":"m 63 0 l 892 0 l 892 267 l 406 267 l 406 349 l 801 349 l 801 616 l 406 616 l 406 699 l 892 699 l 892 966 l 63 966 z m 308 1344 l 435 1102 l 560 1102 l 518 1344 z "},"É":{"ha":935,"x_min":0,"x_max":0,"o":"m 63 0 l 892 0 l 892 267 l 406 267 l 406 349 l 801 349 l 801 616 l 406 616 l 406 699 l 892 699 l 892 966 l 63 966 z m 464 1344 l 423 1102 l 548 1102 l 675 1344 z "},"Ê":{"ha":935,"x_min":0,"x_max":0,"o":"m 63 0 l 892 0 l 892 267 l 406 267 l 406 349 l 801 349 l 801 616 l 406 616 l 406 699 l 892 699 l 892 966 l 63 966 z m 347 1329 l 220 1102 l 416 1102 l 491 1236 l 567 1102 l 763 1102 l 636 1329 z "},"Ë":{"ha":935,"x_min":0,"x_max":0,"o":"m 63 0 l 892 0 l 892 267 l 406 267 l 406 349 l 801 349 l 801 616 l 406 616 l 406 699 l 892 699 l 892 966 l 63 966 z m 236 1216 b 349 1102 236 1153 287 1102 b 463 1216 412 1102 463 1153 b 349 1329 463 1278 412 1329 b 236 1216 287 1329 236 1278 z m 520 1216 b 633 1102 520 1153 571 1102 b 747 1216 696 1102 747 1153 b 633 1329 747 1278 696 1329 b 520 1216 571 1329 520 1278 z "},"Ì":{"ha":469,"x_min":0,"x_max":0,"o":"m 51 1344 l 178 1102 l 303 1102 l 262 1344 z m 63 0 l 406 0 l 406 966 l 63 966 z "},"Í":{"ha":469,"x_min":0,"x_max":0,"o":"m 63 0 l 406 0 l 406 966 l 63 966 z m 166 1102 l 291 1102 l 418 1344 l 207 1344 z "},"Î":{"ha":468,"x_min":0,"x_max":0,"o":"m 89 1329 l -37 1102 l 159 1102 l 234 1236 l 309 1102 l 505 1102 l 379 1329 z m 62 0 l 406 0 l 406 966 l 62 966 z "},"Ï":{"ha":468,"x_min":0,"x_max":0,"o":"m -22 1216 b 91 1102 -22 1153 29 1102 b 205 1216 154 1102 205 1153 b 91 1329 205 1278 154 1329 b -22 1216 29 1329 -22 1278 z m 62 0 l 405 0 l 405 966 l 62 966 z m 262 1216 b 375 1102 262 1153 313 1102 b 489 1216 438 1102 489 1153 b 375 1329 489 1278 438 1329 b 262 1216 313 1329 262 1278 z "},"Ð":{"ha":1082,"x_min":0,"x_max":0,"o":"m 109 0 l 492 0 b 1055 483 850 0 1055 162 b 492 966 1055 804 850 966 l 109 966 l 109 588 l 24 588 l 24 378 l 109 378 z m 453 267 l 453 378 l 566 378 l 566 588 l 453 588 l 453 699 l 492 699 b 703 483 626 699 703 619 b 492 267 703 347 626 267 z "},"Ñ":{"ha":1033,"x_min":0,"x_max":0,"o":"m 645 483 l 645 0 l 989 0 l 989 483 b 406 989 989 804 793 989 b 62 939 305 989 121 964 l 62 0 l 406 0 l 406 699 b 645 483 584 699 645 626 z m 295 1172 l 357 1116 b 428 1166 371 1145 401 1166 b 598 1102 486 1166 528 1102 b 756 1246 675 1102 722 1163 l 693 1314 b 624 1249 676 1276 660 1249 b 442 1310 561 1249 517 1310 b 295 1172 372 1310 331 1251 z "},"Ò":{"ha":1178,"x_min":0,"x_max":0,"o":"m 589 -23 b 1151 483 947 -23 1151 162 b 589 989 1151 804 947 989 b 26 483 231 989 26 804 b 589 -23 26 162 231 -23 z m 379 483 b 589 699 379 619 455 699 b 799 483 722 699 799 619 b 589 267 799 347 722 267 b 379 483 455 267 379 347 z m 406 1344 l 532 1102 l 657 1102 l 616 1344 z "},"Ó":{"ha":1178,"x_min":0,"x_max":0,"o":"m 589 -23 b 1151 483 947 -23 1151 162 b 589 989 1151 804 947 989 b 26 483 231 989 26 804 b 589 -23 26 162 231 -23 z m 379 483 b 589 699 379 619 455 699 b 799 483 722 699 799 619 b 589 267 799 347 722 267 b 379 483 455 267 379 347 z m 562 1344 l 521 1102 l 646 1102 l 772 1344 z "},"Ô":{"ha":1178,"x_min":0,"x_max":0,"o":"m 589 -23 b 1151 483 947 -23 1151 162 b 589 989 1151 804 947 989 b 26 483 231 989 26 804 b 589 -23 26 162 231 -23 z m 444 1329 l 318 1102 l 514 1102 l 589 1236 l 664 1102 l 860 1102 l 734 1329 z m 379 483 b 589 699 379 619 455 699 b 799 483 722 699 799 619 b 589 267 799 347 722 267 b 379 483 455 267 379 347 z "},"Õ":{"ha":1178,"x_min":0,"x_max":0,"o":"m 589 -23 b 1151 483 947 -23 1151 162 b 589 989 1151 804 947 989 b 26 483 231 989 26 804 b 589 -23 26 162 231 -23 z m 359 1172 l 420 1116 b 491 1166 434 1145 464 1166 b 661 1102 549 1166 592 1102 b 819 1246 738 1102 785 1163 l 756 1314 b 687 1249 739 1276 724 1249 b 505 1310 624 1249 580 1310 b 359 1172 435 1310 394 1251 z m 379 483 b 589 699 379 619 455 699 b 799 483 722 699 799 619 b 589 267 799 347 722 267 b 379 483 455 267 379 347 z "},"Ö":{"ha":1178,"x_min":0,"x_max":0,"o":"m 589 -23 b 1151 483 947 -23 1151 162 b 589 989 1151 804 947 989 b 26 483 231 989 26 804 b 589 -23 26 162 231 -23 z m 333 1216 b 447 1102 333 1153 384 1102 b 560 1216 509 1102 560 1153 b 447 1329 560 1278 509 1329 b 333 1216 384 1329 333 1278 z m 379 483 b 589 699 379 619 455 699 b 799 483 722 699 799 619 b 589 267 799 347 722 267 b 379 483 455 267 379 347 z m 617 1216 b 731 1102 617 1153 668 1102 b 845 1216 793 1102 845 1153 b 731 1329 845 1278 793 1329 b 617 1216 668 1329 617 1278 z "},"×":{"ha":649,"x_min":0,"x_max":0,"o":"m 604 629 l 456 777 l 324 636 l 192 777 l 44 629 l 181 483 l 44 337 l 192 189 l 324 330 l 456 189 l 604 337 l 468 483 z "},"Ø":{"ha":1178,"x_min":0,"x_max":0,"o":"m 619 1094 l 596 989 l 589 989 b 26 483 231 989 26 804 b 377 3 26 232 151 64 l 349 -128 l 559 -128 l 582 -23 l 589 -23 b 1151 483 947 -23 1151 162 b 800 963 1151 734 1026 902 l 829 1094 z m 445 312 b 379 483 403 349 379 408 b 531 693 379 598 433 672 l 445 312 z m 799 483 b 647 273 799 368 745 294 l 732 653 b 799 483 775 616 799 558 z "},"Ù":{"ha":1024,"x_min":0,"x_max":0,"o":"m 975 440 l 975 966 l 631 966 l 631 440 b 512 267 631 330 591 267 b 392 440 432 267 392 330 l 392 966 l 49 966 l 49 440 b 512 -23 49 146 208 -23 b 975 440 816 -23 975 146 z m 328 1344 l 455 1102 l 580 1102 l 539 1344 z "},"Ú":{"ha":1024,"x_min":0,"x_max":0,"o":"m 975 440 l 975 966 l 631 966 l 631 440 b 512 267 631 330 591 267 b 392 440 432 267 392 330 l 392 966 l 49 966 l 49 440 b 512 -23 49 146 208 -23 b 975 440 816 -23 975 146 z m 443 1102 l 568 1102 l 695 1344 l 485 1344 z "},"Û":{"ha":1024,"x_min":0,"x_max":0,"o":"m 975 440 l 975 966 l 631 966 l 631 440 b 512 267 631 330 591 267 b 392 440 432 267 392 330 l 392 966 l 49 966 l 49 440 b 512 -23 49 146 208 -23 b 975 440 816 -23 975 146 z m 367 1329 l 240 1102 l 436 1102 l 512 1236 l 587 1102 l 783 1102 l 657 1329 z "},"Ü":{"ha":1024,"x_min":0,"x_max":0,"o":"m 975 440 l 975 966 l 631 966 l 631 440 b 512 267 631 330 591 267 b 392 440 432 267 392 330 l 392 966 l 49 966 l 49 440 b 512 -23 49 146 208 -23 b 975 440 816 -23 975 146 z m 256 1216 b 370 1102 256 1153 307 1102 b 483 1216 432 1102 483 1153 b 370 1329 483 1278 432 1329 b 256 1216 307 1329 256 1278 z m 540 1216 b 654 1102 540 1153 591 1102 b 767 1216 716 1102 767 1153 b 654 1329 767 1278 716 1329 b 540 1216 591 1329 540 1278 z "},"Ý":{"ha":1113,"x_min":0,"x_max":0,"o":"m 384 342 l 384 0 l 728 0 l 728 342 l 1127 966 l 726 966 l 556 680 l 385 966 l -15 966 l 384 342 z m 488 1102 l 613 1102 l 739 1344 l 529 1344 z "},"à":{"ha":1033,"x_min":0,"x_max":0,"o":"m 63 0 l 406 0 l 406 193 l 645 193 l 645 0 l 989 0 l 989 483 b 406 989 989 804 793 989 b 63 939 305 989 121 964 z m 328 1344 l 455 1102 l 580 1102 l 538 1344 z m 406 460 l 406 699 b 645 483 584 699 645 626 l 645 460 z "},"á":{"ha":1033,"x_min":0,"x_max":0,"o":"m 63 0 l 406 0 l 406 193 l 645 193 l 645 0 l 989 0 l 989 483 b 406 989 989 804 793 989 b 63 939 305 989 121 964 z m 406 460 l 406 699 b 645 483 584 699 645 626 l 645 460 z m 443 1102 l 568 1102 l 695 1344 l 484 1344 z "},"â":{"ha":1033,"x_min":0,"x_max":0,"o":"m 63 0 l 406 0 l 406 193 l 645 193 l 645 0 l 989 0 l 989 483 b 406 989 989 804 793 989 b 63 939 305 989 121 964 z m 366 1329 l 240 1102 l 436 1102 l 511 1236 l 587 1102 l 783 1102 l 656 1329 z m 406 460 l 406 699 b 645 483 584 699 645 626 l 645 460 z "},"ã":{"ha":1033,"x_min":0,"x_max":0,"o":"m 63 0 l 406 0 l 406 193 l 645 193 l 645 0 l 989 0 l 989 483 b 406 989 989 804 793 989 b 63 939 305 989 121 964 z m 281 1172 l 342 1116 b 413 1166 357 1145 386 1166 b 584 1102 472 1166 514 1102 b 741 1246 660 1102 707 1163 l 679 1314 b 609 1249 662 1276 646 1249 b 428 1310 547 1249 503 1310 b 281 1172 358 1310 317 1251 z m 406 460 l 406 699 b 645 483 584 699 645 626 l 645 460 z "},"ä":{"ha":1033,"x_min":0,"x_max":0,"o":"m 63 0 l 406 0 l 406 193 l 645 193 l 645 0 l 989 0 l 989 483 b 406 989 989 804 793 989 b 63 939 305 989 121 964 z m 256 1216 b 369 1102 256 1153 307 1102 b 483 1216 432 1102 483 1153 b 369 1329 483 1278 432 1329 b 256 1216 307 1329 256 1278 z m 406 460 l 406 699 b 645 483 584 699 645 626 l 645 460 z m 540 1216 b 653 1102 540 1153 591 1102 b 767 1216 716 1102 767 1153 b 653 1329 767 1278 716 1329 b 540 1216 591 1329 540 1278 z "},"å":{"ha":1033,"x_min":0,"x_max":0,"o":"m 63 0 l 406 0 l 406 193 l 645 193 l 645 0 l 989 0 l 989 483 b 406 989 989 804 793 989 b 63 939 305 989 121 964 z m 341 1264 b 511 1102 341 1170 413 1102 b 682 1264 609 1102 682 1170 b 511 1426 682 1358 609 1426 b 341 1264 413 1426 341 1358 z m 406 460 l 406 699 b 645 483 584 699 645 626 l 645 460 z m 463 1264 b 511 1312 463 1293 483 1312 b 560 1264 540 1312 560 1293 b 511 1216 560 1236 540 1216 b 463 1264 483 1216 463 1236 z "},"æ":{"ha":1499,"x_min":0,"x_max":0,"o":"m 44 483 l 44 0 l 388 0 l 388 193 l 627 193 l 627 0 l 1456 0 l 1456 267 l 971 267 l 971 349 l 1365 349 l 1365 616 l 971 616 l 971 699 l 1456 699 l 1456 966 l 871 966 b 627 989 828 966 728 989 b 44 483 240 989 44 804 z m 627 699 l 627 460 l 388 460 l 388 483 b 627 699 388 626 449 699 z "},"ç":{"ha":940,"x_min":0,"x_max":0,"o":"m 646 699 b 845 660 731 699 813 678 l 916 939 b 617 989 872 966 732 989 b 26 483 231 989 26 804 b 498 -16 26 197 188 18 l 448 -95 l 504 -149 b 582 -197 551 -149 582 -169 b 528 -239 582 -223 556 -239 b 460 -217 502 -239 484 -233 l 428 -298 b 552 -322 471 -315 502 -322 b 741 -189 674 -322 741 -270 b 593 -55 741 -115 684 -62 l 613 -23 l 617 -23 b 916 27 732 -23 872 0 l 845 305 b 646 267 813 288 731 267 b 379 483 455 267 379 347 b 646 699 379 619 455 699 z "},"è":{"ha":935,"x_min":0,"x_max":0,"o":"m 63 0 l 892 0 l 892 267 l 406 267 l 406 349 l 801 349 l 801 616 l 406 616 l 406 699 l 892 699 l 892 966 l 63 966 z m 308 1344 l 435 1102 l 560 1102 l 518 1344 z "},"é":{"ha":935,"x_min":0,"x_max":0,"o":"m 63 0 l 892 0 l 892 267 l 406 267 l 406 349 l 801 349 l 801 616 l 406 616 l 406 699 l 892 699 l 892 966 l 63 966 z m 464 1344 l 423 1102 l 548 1102 l 675 1344 z "},"ê":{"ha":935,"x_min":0,"x_max":0,"o":"m 63 0 l 892 0 l 892 267 l 406 267 l 406 349 l 801 349 l 801 616 l 406 616 l 406 699 l 892 699 l 892 966 l 63 966 z m 347 1329 l 220 1102 l 416 1102 l 491 1236 l 567 1102 l 763 1102 l 636 1329 z "},"ë":{"ha":935,"x_min":0,"x_max":0,"o":"m 63 0 l 892 0 l 892 267 l 406 267 l 406 349 l 801 349 l 801 616 l 406 616 l 406 699 l 892 699 l 892 966 l 63 966 z m 236 1216 b 349 1102 236 1153 287 1102 b 463 1216 412 1102 463 1153 b 349 1329 463 1278 412 1329 b 236 1216 287 1329 236 1278 z m 520 1216 b 633 1102 520 1153 571 1102 b 747 1216 696 1102 747 1153 b 633 1329 747 1278 696 1329 b 520 1216 571 1329 520 1278 z "},"ì":{"ha":469,"x_min":0,"x_max":0,"o":"m 51 1344 l 178 1102 l 303 1102 l 262 1344 z m 63 0 l 406 0 l 406 966 l 63 966 z "},"í":{"ha":469,"x_min":0,"x_max":0,"o":"m 63 0 l 406 0 l 406 966 l 63 966 z m 166 1102 l 291 1102 l 418 1344 l 207 1344 z "},"î":{"ha":468,"x_min":0,"x_max":0,"o":"m 89 1329 l -37 1102 l 159 1102 l 234 1236 l 309 1102 l 505 1102 l 379 1329 z m 62 0 l 406 0 l 406 966 l 62 966 z "},"ï":{"ha":468,"x_min":0,"x_max":0,"o":"m -22 1216 b 91 1102 -22 1153 29 1102 b 205 1216 154 1102 205 1153 b 91 1329 205 1278 154 1329 b -22 1216 29 1329 -22 1278 z m 62 0 l 405 0 l 405 966 l 62 966 z m 262 1216 b 375 1102 262 1153 313 1102 b 489 1216 438 1102 489 1153 b 375 1329 489 1278 438 1329 b 262 1216 313 1329 262 1278 z "},"ñ":{"ha":1033,"x_min":0,"x_max":0,"o":"m 645 483 l 645 0 l 989 0 l 989 483 b 406 989 989 804 793 989 b 62 939 305 989 121 964 l 62 0 l 406 0 l 406 699 b 645 483 584 699 645 626 z m 295 1172 l 357 1116 b 428 1166 371 1145 401 1166 b 598 1102 486 1166 528 1102 b 756 1246 675 1102 722 1163 l 693 1314 b 624 1249 676 1276 660 1249 b 442 1310 561 1249 517 1310 b 295 1172 372 1310 331 1251 z "},"ò":{"ha":1178,"x_min":0,"x_max":0,"o":"m 589 -23 b 1151 483 947 -23 1151 162 b 589 989 1151 804 947 989 b 26 483 231 989 26 804 b 589 -23 26 162 231 -23 z m 379 483 b 589 699 379 619 455 699 b 799 483 722 699 799 619 b 589 267 799 347 722 267 b 379 483 455 267 379 347 z m 406 1344 l 532 1102 l 657 1102 l 616 1344 z "},"ó":{"ha":1178,"x_min":0,"x_max":0,"o":"m 589 -23 b 1151 483 947 -23 1151 162 b 589 989 1151 804 947 989 b 26 483 231 989 26 804 b 589 -23 26 162 231 -23 z m 379 483 b 589 699 379 619 455 699 b 799 483 722 699 799 619 b 589 267 799 347 722 267 b 379 483 455 267 379 347 z m 562 1344 l 521 1102 l 646 1102 l 772 1344 z "},"ô":{"ha":1178,"x_min":0,"x_max":0,"o":"m 589 -23 b 1151 483 947 -23 1151 162 b 589 989 1151 804 947 989 b 26 483 231 989 26 804 b 589 -23 26 162 231 -23 z m 444 1329 l 318 1102 l 514 1102 l 589 1236 l 664 1102 l 860 1102 l 734 1329 z m 379 483 b 589 699 379 619 455 699 b 799 483 722 699 799 619 b 589 267 799 347 722 267 b 379 483 455 267 379 347 z "},"õ":{"ha":1178,"x_min":0,"x_max":0,"o":"m 589 -23 b 1151 483 947 -23 1151 162 b 589 989 1151 804 947 989 b 26 483 231 989 26 804 b 589 -23 26 162 231 -23 z m 359 1172 l 420 1116 b 491 1166 434 1145 464 1166 b 661 1102 549 1166 592 1102 b 819 1246 738 1102 785 1163 l 756 1314 b 687 1249 739 1276 724 1249 b 505 1310 624 1249 580 1310 b 359 1172 435 1310 394 1251 z m 379 483 b 589 699 379 619 455 699 b 799 483 722 699 799 619 b 589 267 799 347 722 267 b 379 483 455 267 379 347 z "},"ö":{"ha":1178,"x_min":0,"x_max":0,"o":"m 589 -23 b 1151 483 947 -23 1151 162 b 589 989 1151 804 947 989 b 26 483 231 989 26 804 b 589 -23 26 162 231 -23 z m 333 1216 b 447 1102 333 1153 384 1102 b 560 1216 509 1102 560 1153 b 447 1329 560 1278 509 1329 b 333 1216 384 1329 333 1278 z m 379 483 b 589 699 379 619 455 699 b 799 483 722 699 799 619 b 589 267 799 347 722 267 b 379 483 455 267 379 347 z m 617 1216 b 731 1102 617 1153 668 1102 b 845 1216 793 1102 845 1153 b 731 1329 845 1278 793 1329 b 617 1216 668 1329 617 1278 z "},"÷":{"ha":678,"x_min":0,"x_max":0,"o":"m 39 588 l 39 378 l 638 378 l 638 588 z m 205 750 b 339 616 205 673 262 616 b 472 750 415 616 472 673 b 339 883 472 827 415 883 b 205 750 262 883 205 827 z m 205 216 b 339 82 205 139 262 82 b 472 216 415 82 472 139 b 339 349 472 293 415 349 b 205 216 262 349 205 293 z "},"ø":{"ha":1178,"x_min":0,"x_max":0,"o":"m 619 1094 l 596 989 l 589 989 b 26 483 231 989 26 804 b 377 3 26 232 151 64 l 349 -128 l 559 -128 l 582 -23 l 589 -23 b 1151 483 947 -23 1151 162 b 800 963 1151 734 1026 902 l 829 1094 z m 445 312 b 379 483 403 349 379 408 b 531 693 379 598 433 672 l 445 312 z m 799 483 b 647 273 799 368 745 294 l 732 653 b 799 483 775 616 799 558 z "},"ù":{"ha":1024,"x_min":0,"x_max":0,"o":"m 975 440 l 975 966 l 631 966 l 631 440 b 512 267 631 330 591 267 b 392 440 432 267 392 330 l 392 966 l 49 966 l 49 440 b 512 -23 49 146 208 -23 b 975 440 816 -23 975 146 z m 328 1344 l 455 1102 l 580 1102 l 539 1344 z "},"ú":{"ha":1024,"x_min":0,"x_max":0,"o":"m 975 440 l 975 966 l 631 966 l 631 440 b 512 267 631 330 591 267 b 392 440 432 267 392 330 l 392 966 l 49 966 l 49 440 b 512 -23 49 146 208 -23 b 975 440 816 -23 975 146 z m 443 1102 l 568 1102 l 695 1344 l 485 1344 z "},"û":{"ha":1024,"x_min":0,"x_max":0,"o":"m 975 440 l 975 966 l 631 966 l 631 440 b 512 267 631 330 591 267 b 392 440 432 267 392 330 l 392 966 l 49 966 l 49 440 b 512 -23 49 146 208 -23 b 975 440 816 -23 975 146 z m 367 1329 l 240 1102 l 436 1102 l 512 1236 l 587 1102 l 783 1102 l 657 1329 z "},"ü":{"ha":1024,"x_min":0,"x_max":0,"o":"m 975 440 l 975 966 l 631 966 l 631 440 b 512 267 631 330 591 267 b 392 440 432 267 392 330 l 392 966 l 49 966 l 49 440 b 512 -23 49 146 208 -23 b 975 440 816 -23 975 146 z m 256 1216 b 370 1102 256 1153 307 1102 b 483 1216 432 1102 483 1153 b 370 1329 483 1278 432 1329 b 256 1216 307 1329 256 1278 z m 540 1216 b 654 1102 540 1153 591 1102 b 767 1216 716 1102 767 1153 b 654 1329 767 1278 716 1329 b 540 1216 591 1329 540 1278 z "},"ý":{"ha":1113,"x_min":0,"x_max":0,"o":"m 384 342 l 384 0 l 728 0 l 728 342 l 1127 966 l 726 966 l 556 680 l 385 966 l -15 966 l 384 342 z m 488 1102 l 613 1102 l 739 1344 l 529 1344 z "},"ÿ":{"ha":1113,"x_min":0,"x_max":0,"o":"m 384 342 l 384 0 l 728 0 l 728 342 l 1127 966 l 726 966 l 556 680 l 385 966 l -15 966 l 384 342 z m 300 1216 b 414 1102 300 1153 351 1102 b 527 1216 476 1102 527 1153 b 414 1329 527 1278 476 1329 b 300 1216 351 1329 300 1278 z m 584 1216 b 698 1102 584 1153 635 1102 b 811 1216 760 1102 811 1153 b 698 1329 811 1278 760 1329 b 584 1216 635 1329 584 1278 z "},"‘":{"ha":306,"x_min":0,"x_max":0,"o":"m 160 1091 l 33 807 l 244 807 l 285 1091 z "},"’":{"ha":268,"x_min":0,"x_max":0,"o":"m 162 807 l 289 1091 l 79 1091 l 38 807 z "},"“":{"ha":544,"x_min":0,"x_max":0,"o":"m 160 1091 l 33 807 l 244 807 l 285 1091 z m 400 1091 l 273 807 l 484 807 l 525 1091 z "},"”":{"ha":507,"x_min":0,"x_max":0,"o":"m 38 807 l 162 807 l 289 1091 l 79 1091 z m 403 807 l 529 1091 l 319 1091 l 278 807 z "},"‹":{"ha":514,"x_min":0,"x_max":0,"o":"m 476 812 l 238 812 l 39 483 l 238 153 l 476 153 l 278 483 z "},"›":{"ha":514,"x_min":0,"x_max":0,"o":"m 38 812 l 236 483 l 38 153 l 276 153 l 475 483 l 276 812 z "},"€":{"ha":1089,"x_min":0,"x_max":0,"o":"m 969 660 l 1040 939 b 742 989 996 966 857 989 b 167 628 418 989 222 859 l 44 628 l 44 506 l 151 506 l 151 460 l 43 460 l 43 338 l 167 338 b 742 -23 222 107 418 -23 b 1040 27 857 -23 996 0 l 969 305 b 770 267 938 288 856 267 b 550 338 664 267 593 293 l 829 338 l 829 460 l 505 460 l 503 483 b 505 506 503 490 503 499 l 830 506 l 830 628 l 550 628 b 770 699 593 673 664 699 b 969 660 856 699 938 678 z "}}}
